<svg width="113" height="109" viewBox="0 0 113 109" fill="none" xmlns="http://www.w3.org/2000/svg">
<path d="M56 100C83.6142 100 106 77.6142 106 50C106 22.3858 83.6142 0 56 0C28.3858 0 6 22.3858 6 50C6 77.6142 28.3858 100 56 100Z" fill="url(#paint0_linear_233_2651)"/>
<g filter="url(#filter0_f_233_2651)">
<ellipse cx="56.1594" cy="89.8242" rx="46.7615" ry="9.02092" fill="#1F88F8" fill-opacity="0.35"/>
</g>
<g filter="url(#filter1_d_233_2651)">
<path d="M97.2936 43.6625L55.739 72.6624L14.1843 43.6625L52.2243 17.1045C53.256 16.3855 54.4832 16 55.7407 16C56.9982 16 58.2254 16.3855 59.257 17.1045L66.845 22.4092L68.8317 23.7888L88.8364 37.7576L90.9438 39.2373L97.2936 43.6625Z" fill="#F2F7FE"/>
</g>
<g clip-path="url(#clip0_233_2651)">
<g filter="url(#filter2_d_233_2651)">
<path d="M72.5614 37.5318H37.83C33.9782 37.5318 30.8557 40.6543 30.8557 44.5061V98.1798C30.8557 102.032 33.9782 105.154 37.83 105.154H72.5614C76.4132 105.154 79.5356 102.032 79.5356 98.1798V44.5061C79.5356 40.6543 76.4132 37.5318 72.5614 37.5318Z" fill="#0B0D0F"/>
</g>
<path d="M72.5614 37.5318H37.83C33.9782 37.5318 30.8557 40.6543 30.8557 44.5061V98.1798C30.8557 102.032 33.9782 105.154 37.83 105.154H72.5614C76.4132 105.154 79.5356 102.032 79.5356 98.1798V44.5061C79.5356 40.6543 76.4132 37.5318 72.5614 37.5318Z" fill="white"/>
<path fill-rule="evenodd" clip-rule="evenodd" d="M35.7502 47.2947H74.6374C75.1508 47.2947 75.567 47.7115 75.567 48.2249V98.438C75.567 98.9519 75.1508 99.3677 74.6374 99.3677H35.7502C35.5037 99.3677 35.2672 99.2697 35.0928 99.0954C34.9185 98.921 34.8206 98.6846 34.8206 98.438V48.2249C34.8206 47.711 35.2368 47.2947 35.7502 47.2947Z" fill="white"/>
<path d="M64.0829 93.3634C67.152 93.3634 69.64 90.8765 69.64 87.8088C69.64 84.7411 67.152 82.2542 64.0829 82.2542C61.0138 82.2542 58.5258 84.7411 58.5258 87.8088C58.5258 90.8765 61.0138 93.3634 64.0829 93.3634Z" fill="url(#paint1_linear_233_2651)"/>
<path d="M63.1913 89.8686C63.2413 89.9192 63.3009 89.9593 63.3665 89.9867C63.4322 90.0141 63.5026 90.0282 63.5737 90.0282C63.6448 90.0282 63.7153 90.0141 63.7809 89.9867C63.8465 89.9593 63.9061 89.9192 63.9561 89.8686L66.6606 87.1564C66.8718 86.9448 66.8718 86.6018 66.6606 86.3896C66.4495 86.1774 66.107 86.1779 65.8958 86.3896L63.574 88.7181L62.3334 87.4745C62.2833 87.4241 62.2237 87.3841 62.1581 87.3568C62.0924 87.3295 62.0221 87.3155 61.951 87.3155C61.8799 87.3155 61.8096 87.3295 61.7439 87.3568C61.6783 87.3841 61.6187 87.4241 61.5686 87.4745C61.4672 87.5763 61.4103 87.7142 61.4103 87.8579C61.4103 88.0016 61.4672 88.1395 61.5686 88.2413L63.1913 89.8686Z" fill="white"/>
<path d="M68.5337 47.1349H41.8568C41.1579 47.1349 40.5913 47.7014 40.5913 48.4004V48.4009C40.5913 49.0998 41.1579 49.6664 41.8568 49.6664H68.5337C69.2326 49.6664 69.7992 49.0998 69.7992 48.4009V48.4004C69.7992 47.7014 69.2326 47.1349 68.5337 47.1349Z" fill="#D7E6FD"/>
<path d="M68.5337 54.2624H41.8568C41.1579 54.2624 40.5913 54.829 40.5913 55.5279V55.5284C40.5913 56.2274 41.1579 56.7939 41.8568 56.7939H68.5337C69.2326 56.7939 69.7992 56.2274 69.7992 55.5284V55.5279C69.7992 54.829 69.2326 54.2624 68.5337 54.2624Z" fill="#D7E6FD"/>
<path d="M57.6291 61.39H41.3627C40.9365 61.39 40.5911 61.9043 40.5911 62.5388V62.5392C40.5911 63.1737 40.9365 63.688 41.3627 63.688H57.6291C58.0553 63.688 58.4008 63.1737 58.4008 62.5392V62.5388C58.4008 61.9043 58.0553 61.39 57.6291 61.39Z" fill="#D7E6FD"/>
<path d="M52.3068 82.0659H41.8566C41.1576 82.0659 40.5911 82.6325 40.5911 83.3314V83.3319C40.5911 84.0308 41.1576 84.5974 41.8566 84.5974H52.3068C53.0057 84.5974 53.5723 84.0308 53.5723 83.3319V83.3314C53.5723 82.6325 53.0057 82.0659 52.3068 82.0659Z" fill="#ABAEB9"/>
<path d="M47.2585 87.1277H41.8566C41.1576 87.1277 40.5911 87.6943 40.5911 88.3933V88.3938C40.5911 89.0927 41.1576 89.6593 41.8566 89.6593H47.2585C47.9574 89.6593 48.524 89.0927 48.524 88.3938V88.3933C48.524 87.6943 47.9574 87.1277 47.2585 87.1277Z" fill="#ABAEB9"/>
</g>
<path d="M48.9822 67.9474L14.1843 92.6911V43.6623L48.9822 67.9474Z" fill="#3581F3"/>
<path d="M62.5001 67.9474L97.298 92.6911V43.6623L62.5001 67.9474Z" fill="#3581F3"/>
<path d="M14.1843 92.6913L52.1795 65.678C53.2193 64.9375 54.4641 64.5396 55.7407 64.5396C57.0172 64.5396 58.262 64.9375 59.3019 65.678L97.2936 92.6913H14.1843Z" fill="#4791FF"/>
<path d="M19.068 40.2557C18.7748 40.0523 18.4035 39.9974 18.064 40.1072L6.91807 43.7133C6.51879 43.8425 6.37653 44.3343 6.64518 44.6566C6.86152 44.9163 7.21564 45.0154 7.53534 44.9059L18.9657 40.9908C19.2882 40.8804 19.3481 40.45 19.068 40.2557Z" fill="#C9DFFF"/>
<path d="M18.8753 44.6974C18.5926 44.4319 18.1868 44.3435 17.8193 44.4672L10.1031 47.064C9.76283 47.1785 9.6427 47.5983 9.87086 47.8755C10.0573 48.1019 10.3644 48.1892 10.6421 48.0947L18.7367 45.3386C19.01 45.2455 19.0857 44.895 18.8753 44.6974Z" fill="#C9DFFF"/>
<path d="M23.017 46.8963C22.722 46.66 22.3252 46.5946 21.97 46.7237L13.0819 49.9541C12.7331 50.0809 12.6281 50.5234 12.8828 50.7934C13.0777 50.9999 13.3769 51.0704 13.6435 50.9726L22.9065 47.5734C23.1945 47.4677 23.2565 47.088 23.017 46.8963Z" fill="#C9DFFF"/>
<path d="M26.1238 53.5635C25.8505 53.2615 25.4199 53.1582 25.0394 53.3034L19.9599 55.2418C19.6479 55.3608 19.5355 55.7445 19.7338 56.0131C19.9196 56.2648 20.2509 56.361 20.5426 56.248L25.9872 54.1393C26.222 54.0483 26.2927 53.7502 26.1238 53.5635Z" fill="#C9DFFF"/>
<path d="M29.198 48.3543C28.8973 48.1657 28.5263 48.1267 28.193 48.2486L16.4891 52.5279C16.115 52.6647 16.0244 53.1523 16.3244 53.4144C16.5228 53.5877 16.8 53.6388 17.0472 53.5478L29.1204 49.1003C29.446 48.9803 29.4919 48.5387 29.198 48.3543Z" fill="#C9DFFF"/>
<path d="M96.8459 22.2587C96.8459 23.3771 95.9393 24.2838 94.8208 24.2838C93.7024 24.2838 92.7957 23.3771 92.7957 22.2587C92.7957 21.1403 93.7024 20.2336 94.8208 20.2336C95.9393 20.2336 96.8459 21.1403 96.8459 22.2587Z" stroke="#3581F3" stroke-width="1.1046"/>
<circle cx="23.0211" cy="97.3725" r="2.02511" stroke="#3581F3" stroke-width="1.1046"/>
<circle cx="85.2478" cy="101.423" r="2.02511" stroke="#3581F3" stroke-width="1.1046"/>
<path d="M29.8951 24.345C30.1127 23.4433 31.3954 23.4433 31.6131 24.345L32.3457 27.38C32.4235 27.7023 32.6751 27.9539 32.9974 28.0317L36.0324 28.7643C36.9341 28.982 36.9341 30.2647 36.0324 30.4823L32.9974 31.215C32.6751 31.2928 32.4235 31.5444 32.3457 31.8666L31.6131 34.9016C31.3954 35.8034 30.1127 35.8034 29.8951 34.9016L29.1624 31.8666C29.0846 31.5444 28.833 31.2928 28.5108 31.215L25.4758 30.4823C24.574 30.2647 24.574 28.982 25.4758 28.7643L28.5108 28.0317C28.833 27.9539 29.0846 27.7023 29.1624 27.38L29.8951 24.345Z" fill="#3581F3"/>
<path d="M103.673 88.3889C103.891 87.4871 105.174 87.4871 105.391 88.3888L106.124 91.4239C106.202 91.7461 106.453 91.9977 106.776 92.0755L109.811 92.8081C110.712 93.0258 110.712 94.3085 109.811 94.5262L106.776 95.2588C106.453 95.3366 106.202 95.5882 106.124 95.9104L105.391 98.9454C105.174 99.8472 103.891 99.8472 103.673 98.9454L102.941 95.9104C102.863 95.5882 102.611 95.3366 102.289 95.2588L99.254 94.5262C98.3522 94.3085 98.3522 93.0258 99.254 92.8081L102.289 92.0755C102.611 91.9977 102.863 91.7461 102.941 91.4239L103.673 88.3889Z" fill="#3581F3"/>
<path d="M9.54761 81.2858C10.1074 81.1962 10.5542 81.7461 10.352 82.2757L8.98685 85.8503C8.78461 86.3799 8.08492 86.4919 7.72741 86.052L5.31425 83.0824C4.95674 82.6425 5.20955 81.9805 5.7693 81.8909L9.54761 81.2858Z" fill="#3581F3"/>
<path d="M105.134 44.8452C104.994 44.2959 105.501 43.801 106.047 43.9543L109.731 44.9895C110.277 45.1429 110.452 45.8295 110.046 46.2255L107.308 48.8981C106.902 49.294 106.22 49.1023 106.08 48.553L105.134 44.8452Z" fill="#3581F3"/>
<defs>
<filter id="filter0_f_233_2651" x="0.192802" y="71.5982" width="111.933" height="36.4519" filterUnits="userSpaceOnUse" color-interpolation-filters="sRGB">
<feFlood flood-opacity="0" result="BackgroundImageFix"/>
<feBlend mode="normal" in="SourceGraphic" in2="BackgroundImageFix" result="shape"/>
<feGaussianBlur stdDeviation="4.60251" result="effect1_foregroundBlur_233_2651"/>
</filter>
<filter id="filter1_d_233_2651" x="12.7115" y="16" width="86.0549" height="59.6081" filterUnits="userSpaceOnUse" color-interpolation-filters="sRGB">
<feFlood flood-opacity="0" result="BackgroundImageFix"/>
<feColorMatrix in="SourceAlpha" type="matrix" values="0 0 0 0 0 0 0 0 0 0 0 0 0 0 0 0 0 0 127 0" result="hardAlpha"/>
<feOffset dy="1.4728"/>
<feGaussianBlur stdDeviation="0.736402"/>
<feComposite in2="hardAlpha" operator="out"/>
<feColorMatrix type="matrix" values="0 0 0 0 0 0 0 0 0 0 0 0 0 0 0 0 0 0 0.25 0"/>
<feBlend mode="normal" in2="BackgroundImageFix" result="effect1_dropShadow_233_2651"/>
<feBlend mode="normal" in="SourceGraphic" in2="effect1_dropShadow_233_2651" result="shape"/>
</filter>
<filter id="filter2_d_233_2651" x="12.1842" y="28.9142" width="86.0229" height="104.965" filterUnits="userSpaceOnUse" color-interpolation-filters="sRGB">
<feFlood flood-opacity="0" result="BackgroundImageFix"/>
<feColorMatrix in="SourceAlpha" type="matrix" values="0 0 0 0 0 0 0 0 0 0 0 0 0 0 0 0 0 0 127 0" result="hardAlpha"/>
<feOffset dy="10.0539"/>
<feGaussianBlur stdDeviation="9.33575"/>
<feColorMatrix type="matrix" values="0 0 0 0 0.226735 0 0 0 0 0.437054 0 0 0 0 0.687819 0 0 0 0.189057 0"/>
<feBlend mode="normal" in2="BackgroundImageFix" result="effect1_dropShadow_233_2651"/>
<feBlend mode="normal" in="SourceGraphic" in2="effect1_dropShadow_233_2651" result="shape"/>
</filter>
<linearGradient id="paint0_linear_233_2651" x1="56" y1="0" x2="56" y2="100" gradientUnits="userSpaceOnUse">
<stop stop-color="#E3ECFA"/>
<stop offset="1" stop-color="#DAE7FF"/>
</linearGradient>
<linearGradient id="paint1_linear_233_2651" x1="64.0829" y1="76.6997" x2="52.9737" y2="87.8139" gradientUnits="userSpaceOnUse">
<stop stop-color="#FF8960"/>
<stop offset="1" stop-color="#FF62A5"/>
</linearGradient>
<clipPath id="clip0_233_2651">
<rect width="48.6809" height="54.2979" fill="white" transform="translate(30.8557 37.5318)"/>
</clipPath>
</defs>
</svg>
