<svg width="14" height="15" viewBox="0 0 14 15" xmlns="http://www.w3.org/2000/svg">
<path d="M13.44 0.5H0.56C0.25025 0.5 0 0.75025 0 1.06V13.94C0 14.2498 0.25025 14.5 0.56 14.5H13.44C13.7498 14.5 14 14.2498 14 13.94V1.06C14 0.75025 13.7498 0.5 13.44 0.5ZM11.823 4.58625H10.7048C9.828 4.58625 9.65825 5.00275 9.65825 5.61525V6.9645H11.7513L11.4783 9.07675H9.65825V14.5H7.476V9.0785H5.65075V6.9645H7.476V5.407C7.476 3.59925 8.58025 2.614 10.1938 2.614C10.9672 2.614 11.6305 2.67175 11.8247 2.698V4.58625H11.823Z" />
</svg>