<svg width="14" height="15" viewBox="0 0 14 15" xmlns="http://www.w3.org/2000/svg">
<g clip-path="url(#clip0)">
<path d="M13.9582 4.62551C13.9503 4.03644 13.8401 3.45322 13.6323 2.90195C13.4521 2.43696 13.1769 2.01466 12.8243 1.66204C12.4717 1.30942 12.0494 1.03424 11.5844 0.854064C11.0402 0.649786 10.4653 0.539329 9.88418 0.527397C9.13596 0.493953 8.89874 0.484619 6.9994 0.484619C5.10007 0.484619 4.85663 0.484619 4.11385 0.527397C3.53297 0.539417 2.95834 0.649872 2.4144 0.854064C1.94934 1.03411 1.52698 1.30925 1.17434 1.66189C0.821705 2.01452 0.546562 2.43689 0.366515 2.90195C0.161828 3.44572 0.0516106 4.02048 0.0406259 4.6014C0.00718142 5.3504 -0.00292969 5.58762 -0.00292969 7.48695C-0.00292969 9.38629 -0.00292969 9.62895 0.0406259 10.3725C0.0522925 10.9543 0.161959 11.5283 0.366515 12.0735C0.546864 12.5384 0.822212 12.9606 1.17497 13.3131C1.52772 13.6656 1.95012 13.9406 2.41518 14.1206C2.95763 14.3331 3.53236 14.4515 4.11463 14.4706C4.86363 14.5041 5.10085 14.5142 7.00018 14.5142C8.89952 14.5142 9.14296 14.5142 9.88574 14.4706C10.4669 14.4592 11.0418 14.349 11.586 14.1447C12.0508 13.9643 12.473 13.6891 12.8256 13.3365C13.1782 12.9839 13.4535 12.5617 13.6339 12.0968C13.8384 11.5524 13.9481 10.9784 13.9597 10.3958C13.9932 9.64762 14.0033 9.4104 14.0033 7.51029C14.0017 5.61095 14.0017 5.36984 13.9582 4.62551ZM6.99474 11.0787C5.00829 11.0787 3.39907 9.46951 3.39907 7.48306C3.39907 5.49662 5.00829 3.8874 6.99474 3.8874C7.94837 3.8874 8.86294 4.26623 9.53726 4.94054C10.2116 5.61486 10.5904 6.52943 10.5904 7.48306C10.5904 8.43669 10.2116 9.35126 9.53726 10.0256C8.86294 10.6999 7.94837 11.0787 6.99474 11.0787ZM10.7335 4.59284C10.2692 4.59284 9.89507 4.21795 9.89507 3.7544C9.89507 3.64434 9.91675 3.53536 9.95886 3.43369C10.001 3.33201 10.0627 3.23962 10.1405 3.1618C10.2184 3.08398 10.3107 3.02225 10.4124 2.98013C10.5141 2.93802 10.6231 2.91634 10.7331 2.91634C10.8432 2.91634 10.9522 2.93802 11.0538 2.98013C11.1555 3.02225 11.2479 3.08398 11.3257 3.1618C11.4035 3.23962 11.4653 3.33201 11.5074 3.43369C11.5495 3.53536 11.5712 3.64434 11.5712 3.7544C11.5712 4.21795 11.1963 4.59284 10.7335 4.59284Z"/>
<path d="M6.99607 9.81977C8.28602 9.81977 9.33173 8.77406 9.33173 7.4841C9.33173 6.19415 8.28602 5.14844 6.99607 5.14844C5.70611 5.14844 4.6604 6.19415 4.6604 7.4841C4.6604 8.77406 5.70611 9.81977 6.99607 9.81977Z"/>
</g>
<defs>
<clipPath id="clip0">
<rect width="14" height="14" fill="white" transform="translate(0 0.5)"/>
</clipPath>
</defs>
</svg>
