<svg width="14" height="15" viewBox="0 0 14 15" xmlns="http://www.w3.org/2000/svg">
<g clip-path="url(#clip0)">
<path d="M0 1.50275C0 0.948875 0.46025 0.5 1.02812 0.5H12.9719C13.5398 0.5 14 0.948875 14 1.50275V13.4972C14 14.0511 13.5398 14.5 12.9719 14.5H1.02812C0.46025 14.5 0 14.0511 0 13.4972V1.50275ZM4.32512 12.2198V5.89788H2.22425V12.2198H4.32512ZM3.27513 5.03425C4.0075 5.03425 4.46338 4.5495 4.46338 3.94225C4.45025 3.32188 4.00838 2.85025 3.28912 2.85025C2.56988 2.85025 2.1 3.32275 2.1 3.94225C2.1 4.5495 2.55588 5.03425 3.26113 5.03425H3.27513ZM7.56962 12.2198V8.68913C7.56962 8.50012 7.58362 8.31112 7.63963 8.17637C7.791 7.79925 8.13663 7.40812 8.71763 7.40812C9.478 7.40812 9.78162 7.98738 9.78162 8.83788V12.2198H11.8825V8.59375C11.8825 6.65125 10.8465 5.74825 9.464 5.74825C8.34925 5.74825 7.84963 6.36075 7.56962 6.79212V6.814H7.55562C7.56027 6.8067 7.56494 6.7994 7.56962 6.79212V5.89788H5.46962C5.49587 6.49113 5.46962 12.2198 5.46962 12.2198H7.56962Z"/>
</g>
<defs>
<clipPath id="clip0">
<rect width="14" height="14" fill="white" transform="translate(0 0.5)"/>
</clipPath>
</defs>
</svg>
