<svg viewBox="0 0 21 20" fill="none" xmlns="http://www.w3.org/2000/svg">
<path d="M14.5 6.66675C15.8807 6.66675 17 5.54746 17 4.16675C17 2.78604 15.8807 1.66675 14.5 1.66675C13.1193 1.66675 12 2.78604 12 4.16675C12 5.54746 13.1193 6.66675 14.5 6.66675Z" stroke-width="1.5" stroke-linecap="round" stroke-linejoin="round"/>
<path d="M4.5 12.5C5.88071 12.5 7 11.3807 7 10C7 8.61929 5.88071 7.5 4.5 7.5C3.11929 7.5 2 8.61929 2 10C2 11.3807 3.11929 12.5 4.5 12.5Z" stroke-width="1.5" stroke-linecap="round" stroke-linejoin="round"/>
<path d="M14.5 18.3333C15.8807 18.3333 17 17.214 17 15.8333C17 14.4525 15.8807 13.3333 14.5 13.3333C13.1193 13.3333 12 14.4525 12 15.8333C12 17.214 13.1193 18.3333 14.5 18.3333Z" stroke-width="1.5" stroke-linecap="round" stroke-linejoin="round"/>
<path d="M6.6582 11.2583L12.3499 14.575" stroke-width="1.5" stroke-linecap="round" stroke-linejoin="round"/>
<path d="M12.3415 5.42505L6.6582 8.74172" stroke-width="1.5" stroke-linecap="round" stroke-linejoin="round"/>
</svg>