<svg width="14" height="15" viewBox="0 0 14 15" xmlns="http://www.w3.org/2000/svg">
<path d="M13.7916 3.37976C13.3045 3.59559 12.7812 3.74142 12.2311 3.80734C12.7987 3.46772 13.2234 2.9332 13.4258 2.30351C12.8925 2.62025 12.3089 2.84321 11.7003 2.96267C11.291 2.52568 10.7489 2.23603 10.1582 2.1387C9.5674 2.04137 8.96103 2.1418 8.43319 2.42441C7.90536 2.70701 7.48559 3.15597 7.23906 3.70159C6.99253 4.2472 6.93303 4.85895 7.0698 5.44184C5.98929 5.38759 4.93225 5.10675 3.9673 4.61754C3.00235 4.12833 2.15104 3.44169 1.46864 2.60217C1.2353 3.00467 1.10114 3.47134 1.10114 3.96834C1.10088 4.41576 1.21106 4.85632 1.4219 5.25094C1.63274 5.64555 1.93773 5.98203 2.3098 6.23051C1.8783 6.21678 1.45631 6.10018 1.07897 5.89042V5.92542C1.07893 6.55294 1.29599 7.16115 1.69333 7.64684C2.09066 8.13253 2.6438 8.4658 3.25889 8.59009C2.85859 8.69843 2.43892 8.71438 2.03155 8.63676C2.20509 9.1767 2.54313 9.64886 2.99835 9.98713C3.45357 10.3254 4.00317 10.5129 4.57022 10.5233C3.60762 11.2789 2.41882 11.6888 1.19505 11.687C0.978276 11.6871 0.761681 11.6744 0.546387 11.6491C1.78858 12.4478 3.23459 12.8717 4.71139 12.87C9.71055 12.87 12.4435 8.72951 12.4435 5.13851C12.4435 5.02184 12.4406 4.90401 12.4353 4.78734C12.9669 4.40291 13.4258 3.92686 13.7904 3.38151L13.7916 3.37976Z"/>
</svg>
