<svg width="24" height="24" viewBox="0 0 24 24" fill="none" xmlns="http://www.w3.org/2000/svg">
<path d="M20.9468 15.5934L15.0801 5.03337C14.2918 3.61254 13.2009 2.83337 12.0001 2.83337C10.7993 2.83337 9.70844 3.61254 8.9201 5.03337L3.05343 15.5934C2.31093 16.9409 2.22843 18.2334 2.82427 19.2509C3.4201 20.2684 4.59343 20.8275 6.13343 20.8275H17.8668C19.4068 20.8275 20.5801 20.2684 21.1759 19.2509C21.7718 18.2334 21.6893 16.9317 20.9468 15.5934ZM11.3126 9.25004C11.3126 8.87421 11.6243 8.56254 12.0001 8.56254C12.3759 8.56254 12.6876 8.87421 12.6876 9.25004V13.8334C12.6876 14.2092 12.3759 14.5209 12.0001 14.5209C11.6243 14.5209 11.3126 14.2092 11.3126 13.8334V9.25004ZM12.6509 17.2342C12.6051 17.2709 12.5593 17.3075 12.5134 17.3442C12.4584 17.3809 12.4034 17.4084 12.3484 17.4267C12.2934 17.4542 12.2384 17.4725 12.1743 17.4817C12.1193 17.4909 12.0551 17.5 12.0001 17.5C11.9451 17.5 11.8809 17.4909 11.8168 17.4817C11.7618 17.4725 11.7068 17.4542 11.6518 17.4267C11.5968 17.4084 11.5418 17.3809 11.4868 17.3442C11.4409 17.3075 11.3951 17.2709 11.3493 17.2342C11.1843 17.06 11.0834 16.8217 11.0834 16.5834C11.0834 16.345 11.1843 16.1067 11.3493 15.9325C11.3951 15.8959 11.4409 15.8592 11.4868 15.8225C11.5418 15.7859 11.5968 15.7584 11.6518 15.74C11.7068 15.7125 11.7618 15.6942 11.8168 15.685C11.9359 15.6575 12.0643 15.6575 12.1743 15.685C12.2384 15.6942 12.2934 15.7125 12.3484 15.74C12.4034 15.7584 12.4584 15.7859 12.5134 15.8225C12.5593 15.8592 12.6051 15.8959 12.6509 15.9325C12.8159 16.1067 12.9168 16.345 12.9168 16.5834C12.9168 16.8217 12.8159 17.06 12.6509 17.2342Z" />
</svg>