<svg width="24" height="24" viewBox="0 0 24 24" fill="none" xmlns="http://www.w3.org/2000/svg">
<path d="M19.5099 18.15L13.5699 21.58C12.5999 22.14 11.3999 22.14 10.4199 21.58L4.48992 18.15C3.51992 17.59 2.91992 16.55 2.91992 15.42V8.58C2.91992 7.46 3.51992 6.42 4.48992 5.85L10.4299 2.42C11.3999 1.86 12.5999 1.86 13.5799 2.42L19.5199 5.85C20.4899 6.41 21.0899 7.45 21.0899 8.58V15.42C21.0799 16.55 20.4799 17.58 19.5099 18.15ZM11.2499 16.25C11.2499 16.66 11.5899 17 11.9999 17C12.4099 17 12.7499 16.66 12.7499 16.25V11C12.7499 10.59 12.4099 10.25 11.9999 10.25C11.5899 10.25 11.2499 10.59 11.2499 11V16.25ZM12.9199 7.37C12.8699 7.25 12.7999 7.14 12.7099 7.04C12.5199 6.85 12.2699 6.75 11.9999 6.75C11.8699 6.75 11.7399 6.78 11.6199 6.83C11.4899 6.88 11.3899 6.95 11.2899 7.04C11.1999 7.14 11.1299 7.25 11.0699 7.37C11.0199 7.49 10.9999 7.62 10.9999 7.75C10.9999 8.01 11.0999 8.27 11.2899 8.46C11.3899 8.55 11.4899 8.62 11.6199 8.67C11.9899 8.83 12.4299 8.74 12.7099 8.46C12.7999 8.36 12.8699 8.26 12.9199 8.13C12.9699 8.01 12.9999 7.88 12.9999 7.75C12.9999 7.62 12.9699 7.49 12.9199 7.37Z"/>
</svg>
